<svg width="73" height="24" viewBox="0 0 73 24" fill="none" xmlns="http://www.w3.org/2000/svg">
<path d="M9.968 17.072C9.968 17.6373 9.824 18.144 9.536 18.592C9.248 19.0293 8.85867 19.376 8.368 19.632C7.888 19.8773 7.36 20 6.784 20H1.424V8.64H6.896C7.42933 8.64 7.888 8.784 8.272 9.072C8.66667 9.34933 8.96533 9.712 9.168 10.16C9.38133 10.5973 9.488 11.056 9.488 11.536C9.488 12.1013 9.344 12.624 9.056 13.104C8.768 13.584 8.368 13.9413 7.856 14.176C8.50667 14.368 9.01867 14.7253 9.392 15.248C9.776 15.7707 9.968 16.3787 9.968 17.072ZM8.848 16.88C8.848 16.496 8.76267 16.144 8.592 15.824C8.42133 15.4933 8.18667 15.2267 7.888 15.024C7.6 14.8213 7.26933 14.72 6.896 14.72H2.544V19.024H6.784C7.168 19.024 7.51467 18.9227 7.824 18.72C8.13333 18.5173 8.37867 18.256 8.56 17.936C8.752 17.6053 8.848 17.2533 8.848 16.88ZM2.544 9.616V13.808H6.448C6.82133 13.808 7.152 13.712 7.44 13.52C7.728 13.3173 7.95733 13.056 8.128 12.736C8.29867 12.416 8.384 12.0747 8.384 11.712C8.384 11.328 8.304 10.9813 8.144 10.672C7.984 10.352 7.76533 10.096 7.488 9.904C7.21067 9.712 6.896 9.616 6.544 9.616H2.544ZM11.8403 20V11.664H12.9283V14.608H14.8163C15.7656 14.608 16.4803 14.8533 16.9603 15.344C17.4509 15.824 17.6963 16.4587 17.6963 17.248C17.6963 17.76 17.5896 18.224 17.3763 18.64C17.1629 19.056 16.8483 19.3867 16.4323 19.632C16.0269 19.8773 15.5149 20 14.8963 20H11.8403ZM12.9283 19.136H14.7523C15.1896 19.136 15.5416 19.0507 15.8083 18.88C16.0749 18.6987 16.2723 18.4693 16.4003 18.192C16.5283 17.904 16.5923 17.5947 16.5923 17.264C16.5923 16.944 16.5336 16.6507 16.4163 16.384C16.3096 16.1067 16.1176 15.888 15.8403 15.728C15.5736 15.5573 15.2003 15.472 14.7203 15.472H12.9283V19.136ZM19.2163 20V11.68H20.3043V20H19.2163ZM22.684 20V11.68H23.772V18.528L28.844 11.664H29.82V20H28.732V13.264L23.74 20H22.684ZM26.268 10.608C25.5427 10.608 24.9827 10.4373 24.588 10.096C24.1933 9.75467 23.996 9.32267 23.996 8.8H24.796C24.796 9.12 24.9133 9.38667 25.148 9.6C25.3933 9.81333 25.7667 9.92 26.268 9.92C26.7587 9.92 27.116 9.81867 27.34 9.616C27.5747 9.41333 27.708 9.14133 27.74 8.8H28.524C28.524 9.32267 28.3267 9.75467 27.932 10.096C27.5373 10.4373 26.9827 10.608 26.268 10.608ZM34.28 20V12.64H31.304V11.664H38.344V12.64H35.368V20H34.28ZM39.809 20V11.68H40.897V18.528L45.969 11.664H46.945V20H45.857V13.264L40.865 20H39.809Z" fill="white"/>
<path d="M60.9062 3L60.8358 3.02325L54.8358 4.4295L54.25 4.5705V19.758L54.8598 19.8517L60.8597 20.9767L60.9295 21H62.5V3H60.9062ZM64 4.5V6H66.25V18H64V19.5H67.75V4.5H64ZM61 4.52325V19.5L55.75 18.5153V5.74275L61 4.52325ZM59.758 11.25C59.4827 11.25 59.242 11.5875 59.242 12C59.242 12.4125 59.482 12.75 59.758 12.75C60.034 12.75 60.25 12.4125 60.25 12C60.25 11.5875 60.0325 11.25 59.758 11.25Z" fill="white"/>
</svg>
