<svg width="40" height="40" viewBox="0 0 40 40" fill="none" xmlns="http://www.w3.org/2000/svg">
<path d="M23 27.846L17 25.746L13.042 27.276C12.786 27.3713 12.5483 27.3437 12.329 27.193C12.1097 27.0423 12 26.8303 12 26.557V14.327C12 14.1483 12.0433 13.9853 12.13 13.838C12.2167 13.6907 12.3427 13.5883 12.508 13.531L17 12L23 14.1L26.958 12.57C27.214 12.4747 27.4517 12.4927 27.671 12.624C27.8903 12.7553 28 12.9513 28 13.212V25.596C28 25.7873 27.947 25.9533 27.841 26.094C27.7357 26.2353 27.5937 26.3347 27.415 26.392L23 27.846ZM22.5 26.626V14.926L17.5 13.181V24.881L22.5 26.626ZM23.5 26.626L27 25.473V13.623L23.5 14.927V26.626ZM13 26.223L16.5 24.881V13.181L13 14.373V26.223Z" fill="#808080"/>
<path d="M4 0.5H39.5V36C39.5 37.933 37.933 39.5 36 39.5H0.5V4C0.5 2.067 2.067 0.5 4 0.5Z" stroke="#818080"/>
</svg>
