<svg width="40" height="40" viewBox="0 0 40 40" fill="none" xmlns="http://www.w3.org/2000/svg">
<path d="M4 0.5H39.5V36C39.5 37.933 37.933 39.5 36 39.5H0.5V4C0.5 2.067 2.067 0.5 4 0.5Z" stroke="#818080"/>
<path d="M29.504 26.3809H27.222C26.359 26.3809 26.099 25.6819 24.552 24.1339C23.2 22.8309 22.629 22.6689 22.287 22.6689C21.814 22.6689 21.685 22.7989 21.685 23.4499V25.5019C21.685 26.0569 21.505 26.3819 20.055 26.3819C18.6483 26.2874 17.2842 25.8601 16.075 25.1351C14.8658 24.4101 13.8461 23.4082 13.1 22.2119C11.329 20.0066 10.0964 17.4188 9.5 14.6539C9.5 14.3119 9.63 14.0019 10.282 14.0019H12.562C13.148 14.0019 13.359 14.2629 13.589 14.8659C14.696 18.1239 16.585 20.9579 17.352 20.9579C17.646 20.9579 17.774 20.8279 17.774 20.0949V16.7389C17.677 15.2079 16.864 15.0789 16.864 14.5249C16.8743 14.3788 16.9411 14.2424 17.0504 14.1447C17.1596 14.0471 17.3026 13.9959 17.449 14.0019H21.033C21.523 14.0019 21.685 14.2459 21.685 14.8319V19.3619C21.685 19.8509 21.895 20.0129 22.043 20.0129C22.337 20.0129 22.563 19.8509 23.102 19.3129C24.2569 17.9036 25.2008 16.3339 25.904 14.6529C25.9756 14.4509 26.1116 14.2779 26.2909 14.1605C26.4703 14.0431 26.6832 13.9878 26.897 14.0029H29.178C29.862 14.0029 30.007 14.3449 29.862 14.8329C29.0321 16.6912 28.0056 18.4553 26.8 20.0949C26.554 20.4699 26.456 20.6649 26.8 21.1049C27.026 21.4469 27.826 22.1149 28.363 22.7499C29.145 23.5299 29.794 24.4319 30.285 25.4199C30.481 26.0559 30.155 26.3809 29.504 26.3809Z" fill="#808080"/>
</svg>
